<?xml version="1.0" encoding="utf-8"?>
<!-- Generator: Adobe Illustrator 19.2.1, SVG Export Plug-In . SVG Version: 6.00 Build 0)  -->
<svg version="1.1" id="Layer_1" xmlns="http://www.w3.org/2000/svg" xmlns:xlink="http://www.w3.org/1999/xlink" x="0px" y="0px"
	 viewBox="0 0 121.6 56.1" style="enable-background:new 0 0 121.6 56.1;" xml:space="preserve">
<style type="text/css">
	.st0{fill:#FFFFFF;}
</style>
<g>
	<rect class="st0" width="121.6" height="56.1"/>
	<g>
		<path d="M66.1,13.2l-5.5,21.4C60.1,32.2,55,13.2,55,13.2H44.4v29.7h7V21.1l6,21.8h6.4l6-21.8v21.8h7l0-29.7H66.1z"/>
		<path d="M27.6,12.5c-11.3,0-13.1,7.4-13.1,9.7h6.7c0.5-1.8,1.9-3.9,6.5-3.9c5.5,0,6,4.5,6,5.5c0,0.1,0,0.7,0,0.7v0c0,0-2,0-2.1,0
			c-10,0-18.3,2-18.3,10c0,4.2,4.2,9.1,10.7,9.1c4.2,0,8.2-1.7,9.8-3l0.2,2.3h6.4V26.8C40.4,17.6,37.1,12.5,27.6,12.5z M33.7,31.6
			c0,0.9-0.2,1.8-0.7,2.6c-0.8,1.8-3.7,3.5-7.4,3.5c-3.2,0-5.4-1-5.4-3.3c0-3.1,3.5-4,6.1-4.2c2.6-0.3,4.3-0.3,5.3-0.3
			c0.2,0,2,0,2,0V31.6z"/>
		<path d="M101.6,31.6c-1.1,3.5-3.9,5.8-7.2,5.8c-4.4,0-7.8-4-7.8-9.3c0-5.3,3.3-9.3,7.8-9.3c3.4,0,6.1,2.3,7.2,5.7h6.7
			c-1.4-7-6.9-12-13.9-12C86,12.5,80,18.8,80,28c0,8.9,5.9,15.6,14.3,15.6c7,0,12.6-5,14-12H101.6z"/>
	</g>
</g>
</svg>
