<?xml version="1.0" encoding="UTF-8" standalone="no"?>
<!-- Created with Inkscape (http://www.inkscape.org/) -->

<svg
   xmlns:dc="http://purl.org/dc/elements/1.1/"
   xmlns:cc="http://creativecommons.org/ns#"
   xmlns:rdf="http://www.w3.org/1999/02/22-rdf-syntax-ns#"
   xmlns:svg="http://www.w3.org/2000/svg"
   xmlns="http://www.w3.org/2000/svg"
   xmlns:xlink="http://www.w3.org/1999/xlink"
   xmlns:sodipodi="http://sodipodi.sourceforge.net/DTD/sodipodi-0.dtd"
   xmlns:inkscape="http://www.inkscape.org/namespaces/inkscape"
   width="693.43634"
   height="396.13901"
   id="svg2"
   version="1.1"
   inkscape:version="0.48.5 r10040"
   sodipodi:docname="New document 1">
  <defs
     id="defs4">
    <linearGradient
       id="linearGradient3082">
      <stop
         style="stop-color:#01445f;stop-opacity:1;"
         offset="0"
         id="stop3084" />
      <stop
         style="stop-color:#904b79;stop-opacity:1;"
         offset="1"
         id="stop3086" />
    </linearGradient>
    <linearGradient
       id="linearGradient3015">
      <stop
         style="stop-color:#efdd25;stop-opacity:1;"
         offset="0"
         id="stop3017" />
      <stop
         id="stop3051"
         offset="0.5"
         style="stop-color:#f7a657;stop-opacity:1" />
      <stop
         style="stop-color:#c86289;stop-opacity:1"
         offset="1"
         id="stop3019" />
    </linearGradient>
    <linearGradient
       inkscape:collect="always"
       xlink:href="#linearGradient3015"
       id="linearGradient3055"
       x1="79.38224"
       y1="53.101627"
       x2="79.38224"
       y2="107.98035"
       gradientUnits="userSpaceOnUse"
       gradientTransform="matrix(5,0,0,5,5.7142861,352.36217)" />
    <linearGradient
       inkscape:collect="always"
       xlink:href="#linearGradient3015"
       id="linearGradient3057"
       x1="79.38224"
       y1="53.101627"
       x2="79.38224"
       y2="107.98035"
       gradientUnits="userSpaceOnUse"
       gradientTransform="matrix(5,0,0,5,5.7142861,352.36217)" />
    <linearGradient
       inkscape:collect="always"
       xlink:href="#linearGradient3082"
       id="linearGradient3088"
       x1="402.62549"
       y1="554.67877"
       x2="402.62549"
       y2="950.95117"
       gradientUnits="userSpaceOnUse" />
    <linearGradient
       inkscape:collect="always"
       xlink:href="#linearGradient3015"
       id="linearGradient3878"
       x1="377.25418"
       y1="178.68961"
       x2="377.25418"
       y2="453.08319"
       gradientUnits="userSpaceOnUse" />
  </defs>
  <sodipodi:namedview
     id="base"
     pagecolor="#ffffff"
     bordercolor="#666666"
     borderopacity="1.0"
     inkscape:pageopacity="0.0"
     inkscape:pageshadow="2"
     inkscape:zoom="0.6475"
     inkscape:cx="347.49035"
     inkscape:cy="197.68339"
     inkscape:document-units="px"
     inkscape:current-layer="layer1"
     showgrid="false"
     fit-margin-top="0"
     fit-margin-left="0"
     fit-margin-right="0"
     fit-margin-bottom="0"
     inkscape:window-width="1366"
     inkscape:window-height="705"
     inkscape:window-x="-8"
     inkscape:window-y="-8"
     inkscape:window-maximized="1" />
  <metadata
     id="metadata7">
    <rdf:RDF>
      <cc:Work
         rdf:about="">
        <dc:format>image/svg+xml</dc:format>
        <dc:type
           rdf:resource="http://purl.org/dc/dcmitype/StillImage" />
        <dc:title></dc:title>
      </cc:Work>
    </rdf:RDF>
  </metadata>
  <g
     inkscape:label="Layer 1"
     inkscape:groupmode="layer"
     id="layer1"
     transform="translate(-58.223938,-553.90657)">
    <path
       inkscape:connector-curvature="0"
       id="path3061"
       d="m 172.50964,950.04557 -114.285702,-111.9691 0,-284.1699 583.011622,0 110.4247,111.9691 0,284.1699 z"
       style="fill:url(#linearGradient3088);fill-opacity:1;stroke:none"
       sodipodi:nodetypes="ccccccc" />
    <path
       style="fill:url(#linearGradient3055);fill-opacity:1;stroke:none"
       d="m 125.40179,618.76842 0,191.5625 70.3125,70.15625 0,-121.875 54.0625,0 0,-72.65625 -54.0625,0 0,-67.1875 -70.3125,0 z"
       id="path2996"
       inkscape:connector-curvature="0" />
    <path
       style="fill:url(#linearGradient3057);fill-opacity:1;stroke:none"
       d="m 268.99554,618.76842 0,265.625 61.875,0 0,-14.53125 c 17.84672,13.4756 39.97598,21.5625 64.0625,21.5625 58.8535,0 106.5625,-47.709 106.5625,-106.5625 0,-58.85351 -47.709,-106.5625 -106.5625,-106.5625 -1.83917,0 -3.65246,-0.092 -5.46875,0 -18.31764,0.92853 -35.42201,6.57072 -50.15625,15.625 l 0,-75.15625 -70.3125,0 z m 125.9375,128.125 c 20.89726,0 37.8125,17.07149 37.8125,37.96875 0,20.89726 -16.91524,37.8125 -37.8125,37.8125 -20.89726,0 -37.8125,-16.91524 -37.8125,-37.8125 0,-20.89726 16.91524,-37.96875 37.8125,-37.96875 z"
       id="path3001"
       inkscape:connector-curvature="0" />
    <path
       id="path3873"
       transform="translate(25.371308,439.1807)"
       style="fill:url(#linearGradient3878);fill-opacity:1;stroke:none"
       d="m 569.50761,305.8443 c -5.04834,-0.89217 -9.28248,-4.15591 -9.28248,-9.28248 0,-5.12657 4.15591,-9.28248 9.28248,-9.28248 l 93.9169,0 -53.51079,-53.51079 c -64.70437,0 -83.20099,-0.0683 -111.86756,28.59823 -15.29017,15.29017 -14.81102,31.7379 -14.81102,38.01723 0,10.92057 -8.85452,56.45524 104.83743,73.71385 5.0685,0.76941 9.28248,4.15591 9.28248,9.28248 0,5.12657 -4.15591,9.28248 -9.28248,9.28248 l -107.02155,0 52.96475,52.96475 c 71.25671,0 96.3448,3.16887 124.42623,-24.91255 15.9417,-15.9417 17.54116,-31.05537 17.54116,-43.34101 0,-24.57127 -6.39325,-53.84262 -106.47555,-71.52971 z"
       inkscape:connector-curvature="0"
       sodipodi:nodetypes="sssccsssssccsss" />
  </g>
</svg>
