<?xml version="1.0" encoding="utf-8"?>
<!-- Generator: Adobe Illustrator 23.0.4, SVG Export Plug-In . SVG Version: 6.00 Build 0)  -->
<svg version="1.1" id="Layer_1" xmlns="http://www.w3.org/2000/svg" xmlns:xlink="http://www.w3.org/1999/xlink" x="0px" y="0px"
	 viewBox="0 0 162.695 45" style="enable-background:new 0 0 162.695 45;" xml:space="preserve">
<style type="text/css">
	.st0{fill-rule:evenodd;clip-rule:evenodd;fill:#42C6F3;}
	.st1{fill:#42C6F3;}
</style>
<path class="st0" d="M120.481,10.347c0.748-0.749,1.119-1.308,1.119-1.308c0.375-0.374,0.375-0.747,0-1.121
	c-0.557-0.187-1.119,0-2.053,0.747c-4.109,3.362-7.472,6.164-10.089,8.405c-1.68,1.682-3.174,2.99-4.857,4.483
	c-2.801,2.802-4.296,4.673-4.483,5.606c-0.186,0.934-0.186,1.492,0.375,1.679c0.374,0.188,0.935,0.188,1.122-0.187
	c0.558-0.186,1.119-0.558,1.866-1.306C109.648,20.62,115.438,14.829,120.481,10.347z"/>
<path class="st0" d="M113.383,9.598c1.308-1.119,1.867-1.68,1.867-2.054c0.188-0.373,0-0.561-0.374-0.747
	c-0.748,0-1.493,0.186-2.053,0.747l-7.285,6.352c-4.486,3.735-6.724,5.79-7.1,6.164c-0.373,0.373-0.558,0.56-0.745,0.373
	c-0.188-0.187-0.188-0.373-0.188-0.746l0.934-4.11c0.56-2.615,1.309-4.483,1.867-5.23c0-0.187,0.188-0.187,0.374-0.375h1.121
	c2.989-0.186,4.671-0.374,5.045-0.374c1.493-0.186,2.056-0.559,2.24-1.306c0-0.186-0.373-0.374-1.119-0.561
	c-7.286-0.186-15.319,0.187-23.909,1.121c-0.561,0.188-0.749,0-0.934,0c0-0.186,0.184-0.373,0.561-0.746l0.934-0.934
	c0.186-0.188,0.186-0.188,0.186-0.374c0-0.187-0.186-0.187-0.374-0.187c-0.56,0-1.122,0-1.306,0.187
	c-0.935,0.186-2.056,1.121-3.552,2.242c-0.186,0-0.186,0-0.37,0.187l-3.176,0.56c-2.057,0.561-3.363,1.121-3.737,1.868
	c-0.373,0.747-0.373,0.934,0.561,0.934h1.68c0.187,0.187,0.374,0.374,0.187,0.747l-6.724,5.979
	c-1.867,0.374-3.175,0.374-3.549,0.374c-1.869,0-3.175,0.186-4.484,0.559c-0.371,0-0.747,0-0.747-0.186
	c-0.187-0.188,0-0.373,0.188-0.747l4.109-3.362c2.615-2.243,4.67-3.736,6.351-4.857c0.934-0.747,1.119-1.122,0.371-1.496
	c-0.371-0.372-1.119-0.186-2.053,0.374l-9.899,6.351c-1.309,0.375-4.11,0.747-8.032,0.935c-2.617,0.373-4.486,0.747-5.234,0.933
	c-0.371,0.188-0.934,0.561-1.305,0.935c-0.375,0.374-0.562,0.747-0.562,1.121c0.187,0.374,0.562,0.561,1.122,0.374
	c1.867-0.187,2.802-0.374,3.176-0.374c0.186,0,0.371,0.187,0.371,0.374s-0.186,0.374-0.558,0.56c-2.801,1.495-5.045,2.243-7.1,2.802
	c-2.053,0.374-3.549,0.56-4.483,0.188c-0.559-0.188-0.747-0.561-0.747-1.121c0-0.375,0.188-0.935,0.375-1.31
	c2.238-3.735,9.339-6.91,20.919-9.152c1.869-0.187,3.365-0.373,4.668-0.56c0.19,0,0.564-0.186,0.749-0.373
	c0.186-0.186,0.374-0.56,0.186-0.747c0-0.56-0.745-0.747-1.867-0.56c-7.658-0.187-14.569,1.494-20.733,4.855l-2.802,1.682
	c-0.373,0.186-0.56,0.186-0.747,0c-0.187-0.187,0-0.562,0.56-0.934c0.374-0.562,0.749-0.934,1.121-1.308l7.658-6.164
	c0.188-0.373,0.188-0.561,0-0.748c-0.557-0.56-1.305-0.373-2.426,0.187c-0.748,0.374-2.057,1.308-4.111,2.615
	c-2.427,1.682-4.67,3.55-6.724,5.23l-2.988,2.427c-3.736,0.561-6.351,0.935-8.033,1.122l-7.658,1.307
	c-1.12,0.187-1.869,0-2.054-0.374c-0.375-0.559-0.187-1.121,0.56-1.867c5.043-4.67,8.965-8.032,11.954-10.273l8.593-6.538
	c0.561-0.375,0.747-0.747,0.561-1.121c-0.187-0.373-0.561-0.56-1.308-0.373c-0.562,0-1.121,0.373-1.867,0.747
	c-2.99,1.869-7.847,5.604-14.757,11.021c-7.1,5.604-11.771,9.898-14.196,12.515c-0.749,0.935-0.749,1.682,0,2.241
	c0.186,0.562,0.934,0.562,1.868,0.186l7.843-2.427c5.044-1.495,8.967-2.428,11.581-2.802c0.934-0.186,1.681-0.374,2.243-0.374
	c0.372,0,0.56,0.188,0.56,0.56c0,0.188,0,0.188-0.188,0.375l-3.548,3.176c-0.934,0.935-1.494,1.869-1.494,2.425
	c-0.186,0.377,0,0.562,0.186,0.749c0.374,0.373,0.749,0.561,1.308,0.561c0.56-0.188,1.308-0.561,2.056-0.934
	c0.559-0.377,1.493-1.31,2.802-2.617c2.054-2.054,3.736-3.923,5.415-5.044c0.375-0.373,0.56-0.373,0.747-0.187
	c0.188,0.187,0.188,0.374,0,0.374l-1.306,2.054c-0.747,1.121-0.934,2.056-0.934,2.802c0.186,0.373,0.186,0.75,0.372,0.935
	c0.747,1.119,2.243,1.682,4.67,1.682c3.365-0.188,7.099-1.496,11.583-3.737c3.175-1.867,5.042-2.802,5.416-3.362
	c0.373-0.187,0.745-0.374,0.934,0c0.188,0,0.188,0.186,0,0.56l-2.614,2.802c-1.31,1.308-2.056,2.241-2.244,2.615
	c-0.371,0.559-0.186,1.122,0.561,1.495c0.934,0.373,1.87,0,2.804-0.935c0.932-0.933,1.682-2.054,2.615-3.175
	c3.359-1.306,6.724-1.867,10.086-2.428c0.373,0,0.56,0,0.56,0.187c0,0.374,0,0.747-0.373,1.308
	c-1.496,1.308-2.244,2.615-2.802,3.549c-0.747,1.122-0.561,1.68,0.187,2.056c0.934,0.371,2.054,0,3.174-1.496
	c7.472-8.031,11.956-12.702,13.451-14.009c1.122-0.934,1.869-1.307,2.241-1.681c0.561,0,0.932-0.187,1.682-0.187l4.483-0.56
	c0.373,0,0.935,0,0.935,0.373c0,0.373-0.188,0.747-0.935,1.307c-8.967,6.913-14.757,11.767-17.558,14.756
	c-0.187,0.186-0.187,0.563-0.187,0.935c0,0.561,0.187,0.747,0.558,0.747c0.748,0.186,1.122,0.186,1.496,0.186
	c0.186,0,0.56-0.371,1.121-0.747l9.152-8.406c5.79-5.229,9.339-8.031,10.274-8.592c0.934-0.747,2.054-1.307,3.549-1.307
	c0.373,0,0.934,0,1.308,0c0.561,0.186,0.561,0.373,0.373,0.56l-17,15.504c-0.37,0.186-0.558,0.748-0.558,1.119
	c0,0.748,0.373,1.121,0.935,1.121c0.747,0,1.305,0,1.679-0.186c0.188-0.187,0.375-0.373,0.935-0.749l12.329-11.58
	c0.187-0.373,0.373-0.373,0.558-0.185c0.188,0,0.188,0.56-0.186,1.68l-1.306,8.78c-0.188,0.934,0,1.493,0.558,1.682
	c0.562,0,0.748,0,0.748,0c0.374,0,0.561-0.377,0.935-0.748C98.814,23.795,104.417,17.818,113.383,9.598z"/>
<path class="st0" d="M161.576,9.786c-5.977,0.186-10.836,0.747-14.757,1.682c-2.241,0.747-4.296,1.307-5.792,1.867l-1.682,0.749
	c-0.371,0.186-0.558,0.186-0.745,0c0-0.186,0-0.561,0.187-0.749l4.857-4.108c0.184-0.187,0.373-0.375,0.373-0.561
	c0.187-0.186,0.187-0.56,0-0.747c-0.373-0.373-0.935-0.373-1.682,0c-0.558,0.374-2.802,2.242-6.911,5.416l-10.834,9.154
	c-0.558,0.373-0.934,0.561-1.121,0.373c-0.187-0.187-0.187-0.56,0-1.308l1.121-3.363c0.747-2.427,1.309-4.108,1.869-5.229
	c0.374-0.934,1.122-1.867,2.241-2.989c0.373-0.374,0.373-0.746,0-1.121c-0.562-0.373-1.308-0.373-1.867,0.188l-6.912,5.978
	c-4.67,4.296-8.406,7.844-11.018,11.209c-0.748,0.934-0.562,1.679,0.184,2.053c0.562,0.187,1.121,0.187,1.495,0
	c0-0.186,0.375-0.374,0.745-0.748l3.365-3.736c2.24-2.241,4.484-4.482,6.538-6.35c0.371-0.187,0.371-0.187,0.56-0.187
	c0.187,0.187,0.187,0.56,0.187,0.933c-1.495,4.671-2.056,7.473-2.243,8.592c0,1.122,0.375,1.683,1.31,1.683
	c0.371,0,0.557-0.187,0.745-0.187c0.374-0.186,0.745-0.374,1.308-0.934c1.682-1.496,3.174-2.989,4.671-4.11l0.558-0.561
	c0.374-0.186,0.56-0.373,0.747-0.186c0,0,0,0.186-0.187,0.561c-0.371,0.932-0.56,1.68-0.371,2.427
	c0.371,0.935,0.747,1.683,1.679,2.054c0.747,0.563,2.056,0.563,3.362,0.563c3.176-0.377,6.912-1.682,11.394-4.111
	c1.123-0.56,2.431-1.493,4.111-2.428c1.68-1.308,2.989-2.241,3.923-2.802c0.748-0.561,1.495-1.121,2.24-1.307l1.682-0.375
	c1.682-0.373,2.802-0.747,2.988-0.747c0.377-0.372,0.748-0.56,0.562-0.934c0-0.371-0.375-0.56-0.935-0.56
	c-3.736,0.188-8.59,0.934-14.757,2.241c-1.305,0.375-2.054,0.934-2.428,1.682c-0.187,0.561,0,0.935,0.374,1.121
	c0.373,0,0.749,0,1.119,0l2.431-0.56c1.492-0.188,2.241-0.374,2.425-0.188c0.375,0,0.375,0.374,0,0.562
	c-0.557,0.559-1.866,1.12-3.922,2.052c-2.24,1.122-4.296,1.683-5.976,2.243c-2.43,0.56-3.923,0.374-4.858-0.373
	c-0.374-0.374-0.374-0.935,0-1.682c0.375-0.934,0.935-1.682,2.057-2.428c2.426-2.429,7.284-4.67,14.754-6.725
	c1.869-0.374,4.111-0.747,6.914-1.121l3.548-0.373c0.935,0,1.306-0.373,1.493-0.934C162.695,9.972,162.322,9.786,161.576,9.786z"/>
<g>
	<path class="st1" d="M30.194,31.606H42.22c1.008,0,1.824,0.408,2.445,1.223c0.311,0.437,0.466,1.078,0.466,1.922v2.504
		c0,1.495-0.718,2.495-2.155,2.999v0.029l2.824,4.659L45.743,45h-5.241c-0.131-0.141-1.062-1.664-2.795-4.572l-0.029-0.029h-2.388
		l-0.058,0.058v4.485L35.173,45h-4.979l-0.058-0.058V31.664L30.194,31.606z M35.26,34.926v2.155h4.485
		c0.534,0,0.863-0.194,0.99-0.582v-0.99c0-0.302-0.302-0.495-0.903-0.582H35.26z"/>
	<path class="st1" d="M49.914,31.606h7.221c1.121,0,2.14,0.485,3.057,1.456c0.505,0.646,0.758,1.247,0.758,1.805v6.783
		c0,1.034-0.602,1.946-1.805,2.737C58.47,44.796,57.635,45,56.64,45H50.41c-2.014,0-3.402-0.834-4.163-2.504
		c-0.117-0.403-0.175-0.81-0.175-1.223v-5.969c0-1.728,0.961-2.911,2.882-3.552C49.308,31.655,49.628,31.606,49.914,31.606z
		 M51.283,35.771v4.687c0,0.694,0.214,1.121,0.641,1.282h3.086c0.442,0,0.693-0.398,0.757-1.194v-4.775
		c0-0.854-0.282-1.282-0.845-1.282h-2.795C51.564,34.489,51.283,34.917,51.283,35.771z"/>
	<path class="st1" d="M62.202,31.606h10.977c1.029,0,2.019,0.466,2.97,1.398c0.523,0.689,0.786,1.31,0.786,1.863v6.783
		c0,1.034-0.601,1.946-1.805,2.737C74.456,44.796,73.62,45,72.625,45H62.202l-0.058-0.058V31.664L62.202,31.606z M67.268,34.489
		v7.251h3.727c0.447,0,0.699-0.408,0.758-1.223v-4.746c0-0.752-0.244-1.179-0.729-1.282H67.268z"/>
	<path class="st1" d="M78.084,31.606h10.977c1.029,0,2.019,0.466,2.97,1.398c0.523,0.689,0.786,1.31,0.786,1.863v6.783
		c0,1.034-0.601,1.946-1.805,2.737C90.338,44.796,89.502,45,88.507,45H78.084l-0.058-0.058V31.664L78.084,31.606z M83.15,34.489
		v7.251h3.727c0.447,0,0.699-0.408,0.758-1.223v-4.746c0-0.752-0.244-1.179-0.729-1.282H83.15z"/>
	<path class="st1" d="M93.967,31.606h12.607l0.059,0.058v2.766l-0.059,0.058h-7.57v1.747h6.989l0.058,0.058v3.145l-0.058,0.058
		h-6.989v2.243h7.57l0.059,0.058v3.145L106.574,45H93.967l-0.058-0.058V31.664L93.967,31.606z"/>
	<path class="st1" d="M107.951,31.606h12.026c1.008,0,1.824,0.408,2.445,1.223c0.311,0.437,0.466,1.078,0.466,1.922v2.504
		c0,1.495-0.718,2.495-2.155,2.999v0.029l2.824,4.659L123.499,45h-5.241c-0.131-0.141-1.062-1.664-2.795-4.572l-0.029-0.029h-2.388
		l-0.058,0.058v4.485L112.93,45h-4.979l-0.058-0.058V31.664L107.951,31.606z M113.017,34.926v2.155h4.485
		c0.534,0,0.863-0.194,0.99-0.582v-0.99c0-0.302-0.302-0.495-0.903-0.582H113.017z"/>
</g>
</svg>
