<?xml version="1.0" encoding="UTF-8"?>
<svg width="60px" height="21px" viewBox="0 0 60 21" version="1.1" xmlns="http://www.w3.org/2000/svg" xmlns:xlink="http://www.w3.org/1999/xlink">
    <title>Group 3</title>
    <g id="组件" stroke="none" stroke-width="1" fill="none" fill-rule="evenodd">
        <g id="Group-3">
            <path d="M5.01693907,11.135853 C7.73893538,11.135853 9.95327103,13.3150612 9.95327103,15.9938767 C9.95327103,18.6726922 7.73893538,20.8519004 5.01693907,20.8519004 C2.29494276,20.8519004 0.0806071157,18.6726922 0.0806071157,15.9938767 C0.0806071157,13.4663444 2.05190047,11.3835833 4.56093821,11.1564009 C4.71111449,11.1428031 4.86321724,11.135853 5.01693907,11.135853 Z M31.9127516,11.0275058 C34.6332856,11.0275058 36.8465341,13.2062273 36.8465341,15.8843206 L36.8465341,15.8843206 L36.8465341,20.3538941 L35.0703724,20.3538941 L35.0703724,19.6093998 C34.1816293,20.3408557 33.0637468,20.7424393 31.9127516,20.7424393 C29.1922176,20.7424393 26.9789691,18.5637178 26.9789691,15.8843206 C26.9789691,13.2062273 29.1922176,11.0275058 31.9127516,11.0275058 Z M48.1823133,7.94261349 L48.1823133,20.3538941 L46.4048271,20.3538941 L46.4048271,19.6133113 C45.5491966,20.3173865 44.4485327,20.7424393 43.2485308,20.7424393 C40.5279968,20.7424393 38.3147483,18.5637178 38.3147483,15.8843206 C38.3147483,13.2062273 40.5279968,11.0275058 43.2485308,11.0275058 C44.399526,11.0275058 45.516084,11.4290894 46.4048271,12.1605453 L46.4048271,12.1605453 L46.4048271,7.94261349 L48.1823133,7.94261349 Z M54.5453695,11.0275058 C57.2659036,11.0275058 59.479152,13.2062273 59.479152,15.8843206 L59.479152,15.8843206 L59.479152,20.3538941 L57.7016658,20.3538941 L57.7016658,19.6093998 C56.8129227,20.3408557 55.6963647,20.7424393 54.5453695,20.7424393 C51.8248355,20.7424393 49.611587,18.5637178 49.611587,15.8843206 C49.611587,13.2062273 51.8248355,11.0275058 54.5453695,11.0275058 Z M21.5563117,11.0280273 C23.740421,11.0280273 25.5179072,12.7777845 25.5179072,14.9278215 L25.5179072,14.9278215 L25.5179072,20.3544156 L23.7417455,20.3544156 L23.7417455,14.9278215 C23.7417455,13.7426283 22.7616115,12.7777845 21.5563117,12.7777845 C20.3510118,12.7777845 19.3708778,13.7426283 19.3708778,14.9278215 L19.3708778,14.9278215 L19.3708778,20.3544156 L17.5947161,20.3544156 L17.5947161,14.9278215 C17.5947161,13.7426283 16.6145821,12.7777845 15.4092822,12.7777845 C14.2053069,12.7777845 13.2251729,13.7426283 13.2251729,14.9278215 L13.2251729,14.9278215 L13.2251729,20.3544156 L11.4476867,20.3544156 L11.4476867,14.9278215 C11.4476867,12.7777845 13.2251729,11.0280273 15.4092822,11.0280273 C16.6066351,11.0280273 17.7245176,11.5547799 18.4834592,12.4739891 C19.2410763,11.5547799 20.3589588,11.0280273 21.5563117,11.0280273 Z M5.0499281,12.9185186 C3.30952804,12.9185186 1.8936318,14.3123267 1.8936318,16.0255763 C1.8936318,17.7401297 3.30952804,19.1339378 5.0499281,19.1339378 C6.79032815,19.1339378 8.20754889,17.7401297 8.20754889,16.0255763 C8.20754889,14.3123267 6.79032815,12.9185186 5.0499281,12.9185186 Z M31.9127516,12.777263 C30.1723515,12.777263 28.7564553,14.1710711 28.7564553,15.8843206 C28.7564553,17.598874 30.1723515,18.9926821 31.9127516,18.9926821 C33.6531516,18.9926821 35.0703724,17.598874 35.0703724,15.8843206 C35.0703724,14.1710711 33.6531516,12.777263 31.9127516,12.777263 Z M43.2485308,12.777263 C41.5081307,12.777263 40.0922345,14.1710711 40.0922345,15.8843206 C40.0922345,17.598874 41.5081307,18.9926821 43.2485308,18.9926821 C44.9889308,18.9926821 46.4048271,17.598874 46.4048271,15.8843206 C46.4048271,14.1710711 44.9889308,12.777263 43.2485308,12.777263 Z M54.5453695,12.777263 C52.8049695,12.777263 51.3877487,14.1710711 51.3877487,15.8843206 C51.3877487,17.598874 52.8049695,18.9926821 54.5453695,18.9926821 C56.2857696,18.9926821 57.7016658,17.598874 57.7016658,15.8843206 C57.7016658,14.1710711 56.2857696,12.777263 54.5453695,12.777263 Z" id="Combined-Shape" stroke="#212121" stroke-width="0.1" fill="#212121"/>
            <path d="M39.423934,6.47756024 C37.66691,4.07142849 34.6966121,2.53094812 31.6754965,2.53094812 C28.6569217,2.53094812 25.6917056,4.07142849 23.9346817,6.47756024 L22.307243,4.83724563 C24.4974883,1.83842701 27.925146,0.20695847 31.6754965,0.20695847 C35.4271174,0.20695847 38.857316,1.84095446 41.0475613,4.84103681 L39.423934,6.47756024 Z" id="Fill-1" fill="#10C1D0"/>
            <path d="M36.1524138,10.1310456 C35.0102848,8.73715731 33.3650599,7.85507749 31.6613946,7.85507749 C29.9589997,7.85507749 28.3099635,8.70050929 27.1678344,10.0918701 L25.5200686,8.43133594 C27.1005009,6.5028921 29.2691487,5.52982411 31.6613946,5.52982411 C34.0561814,5.52982411 36.238804,6.51932052 37.8205067,8.45029181 L36.1524138,10.1310456 Z" id="Fill-3" fill="#10C1D0"/>
        </g>
    </g>
</svg>